<svg width="445" height="77" viewBox="0 0 445 77" fill="none" xmlns="http://www.w3.org/2000/svg">
<path d="M42.144 76H0.768V75.616C10.752 75.616 10.752 69.952 10.752 58.72V26.08C10.752 14.464 10.752 9.27999 0.768 9.27999V8.8H35.808C56.832 8.8 67.968 14.368 67.968 28.288C67.968 44.704 47.424 47.968 33.312 47.968H30.528V58.72C30.528 69.952 31.008 75.616 42.144 75.616V76ZM30.528 9.27999V47.488H33.312C43.488 47.488 46.848 41.44 46.848 28.288C46.848 15.232 43.488 9.27999 33.312 9.27999H30.528ZM97.0058 76.768C81.2618 76.768 68.9738 66.112 68.9738 50.752C68.9738 35.392 81.2618 24.736 97.0058 24.736C112.75 24.736 125.038 35.392 125.038 50.752C125.038 66.112 112.75 76.768 97.0058 76.768ZM97.0058 76.288C104.494 76.288 105.454 65.44 105.454 50.752C105.454 37.024 104.494 25.216 97.0058 25.216C89.5178 25.216 88.5578 37.024 88.5578 50.752C88.5578 65.44 89.5178 76.288 97.0058 76.288ZM170.403 24.736C176.931 24.736 182.979 28.864 182.979 36.736C182.979 42.976 178.563 47.872 172.323 47.872C168.003 47.872 164.067 45.28 163.779 39.808C166.659 38.848 168.579 36.448 168.579 33.184C168.579 30.016 167.235 28 164.355 28C159.843 28 156.387 34.144 154.371 40.288V64.096C154.371 73.408 155.523 75.616 163.587 75.616V76H128.643V75.616C135.747 75.616 136.611 73.408 136.611 64.096V39.616C136.611 32.896 136.131 29.824 127.587 31.84L127.491 31.36L154.563 24.928L154.275 39.136C156.675 31.84 161.283 24.736 170.403 24.736ZM204.073 76.768C195.913 76.768 192.553 71.584 192.553 63.616V25.984H185.545V25.504H187.753C195.145 25.504 201.385 24.352 205.417 21.376C207.913 17.728 209.449 11.2 209.833 6.4H210.313V25.504H220.201V25.984H210.313V61.408C210.313 65.824 210.601 70.624 215.113 70.624C217.609 70.624 219.913 69.184 222.025 67.168L222.313 67.456C217.801 72.352 211.657 76.768 204.073 76.768ZM256.576 76H221.92V75.616C229.024 75.616 229.888 73.408 229.888 64.096V25.984H221.92V25.504H230.08C229.6 23.008 229.216 20.032 229.216 17.248C229.216 6.976 234.496 0.159998 246.4 0.159998C254.08 0.159998 261.568 4.384 261.568 12.064C261.568 17.92 257.44 21.856 251.968 21.856C247.168 21.856 243.328 19.168 242.752 13.216C245.152 12.352 247.168 10.336 247.168 7.07199C247.168 4.192 245.248 1.504 241.792 1.504C236.704 1.504 233.92 5.92 233.92 11.2C233.92 18.304 238.624 25.504 248.608 25.504H256.576V25.984H247.648V64.096C247.648 73.408 248.512 75.616 256.576 75.616V76ZM285.818 76.768C270.074 76.768 257.786 66.112 257.786 50.752C257.786 35.392 270.074 24.736 285.818 24.736C301.562 24.736 313.85 35.392 313.85 50.752C313.85 66.112 301.562 76.768 285.818 76.768ZM285.818 76.288C293.306 76.288 294.266 65.44 294.266 50.752C294.266 37.024 293.306 25.216 285.818 25.216C278.33 25.216 277.37 37.024 277.37 50.752C277.37 65.44 278.33 76.288 285.818 76.288ZM349.277 76H315.581V75.616C322.685 75.616 323.549 73.408 323.549 64.096V14.848C323.549 8.128 323.069 5.056 314.524 7.07199L314.428 6.592L341.309 0.159998V64.096C341.309 73.408 342.173 75.616 349.277 75.616V76ZM367.82 21.568C361.964 21.568 357.068 16.768 357.068 10.816C357.068 4.96 361.964 0.159998 367.82 0.159998C373.772 0.159998 378.476 4.86399 378.476 10.816C378.476 16.768 373.772 21.568 367.82 21.568ZM384.716 76H350.924V75.616C358.028 75.616 358.892 73.408 358.892 64.096V39.616C358.892 32.896 358.412 29.824 349.868 31.84L349.772 31.36L376.94 24.928L376.748 35.776V64.096C376.748 73.408 377.612 75.616 384.716 75.616V76ZM416.412 76.768C400.668 76.768 388.38 66.112 388.38 50.752C388.38 35.392 400.668 24.736 416.412 24.736C432.156 24.736 444.444 35.392 444.444 50.752C444.444 66.112 432.156 76.768 416.412 76.768ZM416.412 76.288C423.9 76.288 424.86 65.44 424.86 50.752C424.86 37.024 423.9 25.216 416.412 25.216C408.924 25.216 407.964 37.024 407.964 50.752C407.964 65.44 408.924 76.288 416.412 76.288Z" fill="white"/>
</svg>
